<svg width="295.000000pt" height="325.000000pt" viewBox="0 0 180 199" fill="none" xmlns="http://www.w3.org/2000/svg">
<circle cx="141" cy="14" r="14" fill="#008D8E"/>
<circle cx="152" cy="171" r="28" fill="#008D8E"/>
<circle cx="19" cy="96" r="19" fill="#008D8E"/>
<rect x="99.9532" y="138" width="28" height="10.0936" transform="rotate(29.3886 99.9532 138)" fill="#008D8E"/>
<rect x="42.9532" y="107" width="28" height="10.0936" transform="rotate(29.3886 42.9532 107)" fill="#008D8E"/>
<rect x="152.009" y="106" width="31.6421" height="8.02561" transform="rotate(86.282 152.009 106)" fill="#008D8E"/>
<rect x="147.009" y="35" width="31.6421" height="8.02561" transform="rotate(86.282 147.009 35)" fill="#008D8E"/>
<rect x="67.4635" y="66.9585" width="31.6421" height="6.02493" transform="rotate(145.385 67.4635 66.9585)" fill="#008D8E"/>
<rect x="124.464" y="29.9585" width="31.6421" height="6.02493" transform="rotate(145.385 124.464 29.9585)" fill="#008D8E"/>
<circle cx="81.5" cy="133.5" r="9.5" fill="#008D8E"/>
<path d="M90.4834 55.5C90.4834 60.7467 86.2301 65 80.9834 65C75.7367 65 71.4834 60.7467 71.4834 55.5C71.4834 50.2533 75.7367 46 80.9834 46C86.2301 46 90.4834 50.2533 90.4834 55.5Z" fill="#008D8E"/>
<circle cx="146.5" cy="86.5" r="9.5" fill="#008D8E"/>
</svg>
