<svg version="1.0" xmlns="http://www.w3.org/2000/svg"
     width="295.000000pt" height="325.000000pt" viewBox="0 0 295.000000 325.000000"
     preserveAspectRatio="xMidYMid meet">

    <g transform="translate(0.000000,325.000000) scale(0.100000,-0.100000)"
       fill="#008e8f" stroke="none">
        <path d="M2238 3216 c-52 -19 -83 -40 -111 -78 -42 -56 -52 -99 -38 -160 16
        -75 50 -121 113 -152 66 -33 115 -33 184 0 61 29 95 72 114 143 27 102 -41
    213 -149 245 -65 19 -65 19 -113 2z"/>
        <path d="M1835 2734 c-60 -47 -117 -91 -125 -97 -8 -7 -34 -26 -57 -42 -43
        -31 -52 -52 -31 -73 19 -19 42 -14 84 18 21 16 68 51 104 77 36 26 71 53 78
    60 8 7 33 27 58 44 24 16 44 36 44 43 0 10 -36 57 -43 55 -1 0 -51 -38 -112
    -85z"/>
        <path d="M2257 2643 c-3 -5 -1 -53 4 -108 4 -55 8 -151 9 -212 l0 -113 66 0
    67 0 -6 103 c-4 56 -10 155 -13 220 l-7 117 -58 0 c-32 0 -60 -3 -62 -7z"/>
        <path d="M1285 2463 c-84 -45 -110 -156 -54 -227 85 -108 269 -48 269 87 0 37
        -20 89 -44 113 -43 43 -119 55 -171 27z"/>
        <path d="M910 2094 c-101 -76 -177 -132 -219 -161 -9 -6 23 -53 37 -53 25 0
    362 246 362 264 -1 18 -26 46 -41 45 -8 0 -70 -43 -139 -95z"/>
        <path d="M2345 1999 c-42 -13 -73 -41 -90 -83 -20 -46 -19 -72 5 -123 64 -142
    280 -91 280 66 0 58 -32 108 -84 132 -45 20 -66 22 -111 8z"/>
        <path d="M195 1931 c-91 -43 -141 -107 -165 -208 -21 -91 15 -199 89 -266 64
        -58 114 -77 198 -77 120 0 208 55 266 164 17 33 21 59 21 126 1 75 -3 91 -29
    138 -74 136 -242 190 -380 123z"/>
        <path d="M2366 1501 c-4 -5 1 -85 9 -178 8 -92 15 -192 15 -220 l0 -53 66 0
    67 0 -6 53 c-3 28 -12 132 -19 230 l-12 177 -57 0 c-32 0 -60 -4 -63 -9z"/>
        <path d="M686 1423 c-27 -44 -32 -61 -23 -69 19 -17 361 -224 370 -224 7 0 77
    111 77 122 0 3 -66 46 -147 95 -199 120 -222 133 -232 133 -5 0 -25 -26 -45
    -57z"/>
        <path d="M1273 1203 c-12 -2 -38 -22 -57 -44 -33 -36 -36 -44 -36 -102 0 -54
    4 -66 28 -92 38 -42 65 -55 113 -55 126 0 198 138 124 236 -41 54 -95 72 -172
    57z"/>
        <path d="M1587 948 c-13 -18 -32 -45 -42 -60 -17 -27 -17 -27 22 -53 86 -59
    328 -205 335 -203 12 5 77 112 72 120 -3 4 -31 24 -62 44 -31 20 -69 45 -84
    55 -15 11 -30 19 -33 19 -3 0 -44 25 -90 55 -47 30 -88 55 -90 55 -2 0 -15
    -15 -28 -32z"/>
        <path d="M2385 871 c-176 -46 -308 -197 -330 -376 -15 -121 32 -252 122 -342
    98 -97 201 -135 342 -126 91 6 118 14 196 64 93 59 155 140 186 241 62 205
    -45 435 -238 513 -72 29 -217 43 -278 26z"/>
    </g>
</svg>